<svg xmlns="http://www.w3.org/2000/svg" width="44" height="44" viewBox="0 0 44 44">
    <g fill="#263751" fill-rule="evenodd">
        <path d="M28.732 0L22.41 6.321 24.55 14.3l-4.871 4.872-6.526-6.526-.086-3.119L6.17 2.627.51 8.29l6.896 6.898 3.12.086 6.528 6.524-6.365 6.362-4.632-1.242L0 32.974l2.216 8.271 8.273 2.218 6.055-6.057-1.24-4.633 6.36-6.364 3.054 3.053-2.992 2.99 3.94 1.198 10.009 10.012 5.866-5.869-10.008-10.009-1.2-3.939-2.991 2.991-3.051-3.053 4.87-4.87 7.98 2.137 6.32-6.32-1.481-5.7-6.357 6.355-5.952-1.593-1.595-5.954 6.358-6.357-5.702-1.48zm-8.115 20.11l5.414-5.415-2.14-7.977 5.242-5.242 2.723.707-5.261 5.258 1.992 7.434 7.433 1.992 5.259-5.26.708 2.721-5.242 5.241-7.98-2.138-5.412 5.414-2.736-2.735zm-9.34-5.962l-.185-.188-3.12-.086L2.386 8.29 6.17 4.505l5.584 5.587.087 3.118 14.56 14.562-.747.75-14.377-14.374zm6.714 8.588l2.737 2.734-6.904 6.906 1.24 4.633-4.972 4.973-6.793-1.82L1.48 33.37l4.972-4.97 4.633 1.24 6.905-6.904zm6.238 9.092l5.48-5.48.487 1.601-4.366 4.365-1.601-.486zm2.726 1.236l3.99-3.99 8.72 8.72-3.99 3.99-8.72-8.72z"/>
        <path d="M9.238 38.8l-3.608-.969-.968-3.608 2.643-2.642 3.607.968.968 3.607L9.238 38.8zm-2.33-8.699l-3.727 3.724 1.365 5.09 5.09 1.365 3.725-3.726-1.365-5.089-5.088-1.364z"/>
    </g>
</svg>
